<svg fill="none" xmlns="http://www.w3.org/2000/svg" viewBox="27 10 146.7 20">
<path d="M68.327 14.169L63.5693 26.4261H65.5215L66.5041 23.7923H72.1667L73.1621 26.4261H75.1143L70.305 14.169H68.327ZM69.3095 16.233L71.5461 22.1716H67.0988L69.3095 16.233ZM75.6961 24.3621C76.6786 25.603 78.4498 26.578 80.945 26.578C83.7892 26.578 85.9612 25.3118 85.9612 22.83C85.9612 21.0953 84.8881 20.2975 83.6987 19.8417C82.3024 19.3099 80.6735 19.2213 79.5099 18.7781C78.8764 18.5248 78.3205 18.1576 78.3205 17.3726C78.3205 16.3469 79.3289 15.6758 80.9579 15.6758C82.561 15.6758 83.647 16.3089 84.371 17.1067L85.6509 15.9924C84.914 15.0554 83.4401 14.0424 81.0355 14.0424C78.1783 14.0424 76.5493 15.4606 76.5493 17.4485C76.5493 18.8667 77.3638 19.6391 78.6825 20.1583C80.04 20.6901 81.6302 20.8167 82.8066 21.2345C83.6082 21.5258 84.1641 21.931 84.1641 22.8553C84.1641 24.2102 82.923 24.9826 81.0484 24.9826C79.2643 24.9826 77.9456 24.2735 77.0665 23.2605L75.6961 24.3621ZM88.0038 13.9031V26.4261H89.7233V20.0696C90.2534 18.8287 91.0937 18.4235 92.115 18.4235C93.382 18.4235 94.2094 19.044 94.2094 20.6647V26.4261H95.9289V20.4875C95.9289 17.8664 94.5973 16.8281 92.658 16.8281C91.404 16.8281 90.4343 17.2713 89.7233 18.0943V13.3333L88.0038 13.9031ZM102.315 16.8281C99.9496 16.8281 98.2689 18.5248 98.2689 21.7284C98.2689 24.9572 99.9366 26.6666 102.315 26.6666C104.668 26.6666 106.362 24.9572 106.362 21.7284C106.362 18.5248 104.655 16.8281 102.315 16.8281ZM102.315 18.3855C103.738 18.3855 104.733 19.5378 104.733 21.7537C104.733 23.9443 103.738 25.0965 102.315 25.0965C100.867 25.0965 99.9108 23.9443 99.9108 21.7537C99.9108 19.5378 100.893 18.3855 102.315 18.3855ZM114.83 17.3852C114.507 17.094 113.99 16.8281 113.149 16.8281C111.986 16.8281 111.068 17.2966 110.396 18.1829V17.056H108.767V26.4261H110.486V20.1076C111.029 18.7907 111.844 18.4235 112.813 18.4235C113.395 18.4235 113.847 18.5375 114.197 18.8794L114.83 17.3852ZM115.554 17.056V18.4362H116.64V24.1215C116.64 25.7423 117.61 26.5147 118.786 26.5147C119.484 26.5147 120.221 26.2488 120.57 25.8689L120.855 24.3241C120.415 24.7293 119.988 24.8939 119.484 24.8939C118.76 24.8939 118.359 24.5014 118.359 23.7543V18.4362H120.803V17.056H118.359V13.9664L116.64 14.5236V17.056H115.554ZM122.561 13.9031V26.4261H124.281V13.3333L122.561 13.9031ZM127.112 14.169V26.4261H128.987V14.169H127.112ZM131.818 17.056V26.4261H133.537V20.0696C134.067 18.8287 134.921 18.4235 135.929 18.4235C137.196 18.4235 138.036 19.044 138.036 20.6647V26.4261H139.756V20.4875C139.756 17.8664 138.411 16.8281 136.472 16.8281C135.166 16.8281 134.158 17.2966 133.447 18.2083V17.056H131.818ZM148.288 17.056L144.151 21.7031V13.3333L142.432 13.9031V26.4261H144.151V23.7543L145.78 21.9436L148.819 26.4261H150.68L146.841 20.7407L150.163 17.056H148.288ZM152.632 24.5394C152.076 24.5394 151.663 24.9446 151.663 25.5397C151.663 26.1348 152.076 26.5527 152.632 26.5527C153.214 26.5527 153.628 26.1348 153.628 25.5397C153.628 24.9446 153.214 24.5394 152.632 24.5394ZM155.709 17.056V26.4261H157.429V20.019C157.92 18.8287 158.735 18.4235 159.678 18.4235C160.855 18.4235 161.63 19.044 161.63 20.6647V26.4261H163.35V20.0316C163.854 18.8287 164.617 18.4235 165.574 18.4235C166.776 18.4235 167.552 19.044 167.552 20.6647V26.4261H169.271V20.4875C169.271 17.8664 167.991 16.8281 166.117 16.8281C164.746 16.8281 163.699 17.4106 163.014 18.5248C162.523 17.3346 161.501 16.8281 160.208 16.8281C158.967 16.8281 158.011 17.2839 157.338 18.1703V17.056H155.709ZM171.947 13.9031V26.4261H173.667V13.3333L171.947 13.9031Z" fill="white"/>
<path d="M40.345 14.2564L40.3402 14.2602C40.1471 14.4072 39.9614 14.5633 39.7839 14.7281L39.778 14.7338C39.6004 14.899 39.4312 15.0727 39.271 15.2542L39.2691 15.2566C38.1454 16.5307 37.4635 18.1881 37.4635 20C37.4635 21.1546 37.7411 22.2464 38.2322 23.2168C39.242 22.8392 40.0473 22.0147 40.374 21.0016C40.2953 20.6733 40.2549 20.3373 40.2537 20C40.2537 19.1362 40.5132 18.3264 40.9524 17.6345C41.0152 17.5355 41.0816 17.4391 41.1516 17.3451C41.3498 17.0807 41.5759 16.8375 41.8261 16.6195C41.8473 16.6009 41.8673 16.5812 41.8894 16.5632C41.9488 16.5129 42.0116 16.4659 42.0735 16.4186C42.2371 16.2928 42.4097 16.1788 42.59 16.0773C42.6355 16.0516 42.6804 16.0248 42.7267 16.0005C42.8437 15.939 42.9628 15.8811 43.0853 15.8297L43.0886 15.8281C43.6556 15.5894 44.2662 15.4664 44.8833 15.4665H52.0683C53.6333 15.4665 54.9021 14.2427 54.9021 12.7337H44.8833V12.7328C43.2395 12.7312 41.6422 13.2675 40.345 14.2564V14.2564ZM54.9026 24.5341H44.8833C44.6579 24.5341 44.4377 24.5122 44.2207 24.481C43.6539 25.3519 42.9287 26.1134 42.0811 26.7277C42.9636 27.0817 43.9079 27.2649 44.8616 27.2672H44.8577C45.2277 27.2672 45.5825 27.4111 45.8442 27.6674C46.1058 27.9236 46.2528 28.2712 46.2528 28.6336V30L54.9026 24.5341ZM37.0193 15.466C37.2447 15.466 37.4649 15.4878 37.6822 15.519C38.2488 14.6481 38.9741 13.8866 39.8218 13.2726C38.9392 12.9183 37.9949 12.7351 37.041 12.7328H37.0449C36.6749 12.7328 36.3201 12.5889 36.0584 12.3326C35.7968 12.0764 35.6498 11.7288 35.6498 11.3664V10L27 15.4657H37.0193V15.466Z" fill="url(#paint0_linear_1_2)"/>
<path d="M40.9521 26.1587C41.1606 26.0302 41.3625 25.8918 41.5571 25.7439L41.5629 25.7393C41.9512 25.4436 42.3087 25.1111 42.6302 24.7467C42.6313 24.7453 42.6324 24.7437 42.6341 24.7423C42.7945 24.5603 42.9456 24.3707 43.087 24.1742L43.0887 24.1722H43.0884C43.9681 22.9516 44.4398 21.4939 44.4386 19.9997C44.4386 18.8451 44.1612 17.7533 43.6696 16.7829C42.6598 17.1606 41.8545 17.9851 41.5278 18.9984C41.604 19.3217 41.6483 19.6559 41.6483 19.9997C41.6483 20.8628 41.3894 21.6717 40.9508 22.3631C40.71 22.7414 40.4153 23.084 40.0754 23.3805C40.0542 23.3988 40.0342 23.4185 40.0127 23.4363C39.953 23.4868 39.8905 23.5339 39.8282 23.5811C39.6651 23.7067 39.4928 23.8205 39.3129 23.9216C39.2668 23.9479 39.2216 23.9749 39.1748 23.9995C39.059 24.0609 38.9406 24.1173 38.8198 24.1684L38.8131 24.1717C38.2462 24.4103 37.6355 24.5334 37.0184 24.5333H29.8341C28.2687 24.5333 27 25.757 27 27.2661H37.0193V27.2672C38.463 27.2672 39.8107 26.86 40.9516 26.1582C40.9519 26.159 40.9521 26.1587 40.9521 26.1587V26.1587Z" fill="url(#paint1_linear_1_2)"/>
<defs>
<linearGradient id="paint0_linear_1_2" x1="25.4189" y1="9.65669" x2="50.5169" y2="21.606" gradientUnits="userSpaceOnUse">
<stop stop-color="#647B7D"/>
<stop offset="1" stop-color="#5BD0A4"/>
</linearGradient>
<linearGradient id="paint1_linear_1_2" x1="22.4921" y1="15.8041" x2="38.1779" y2="23.2722" gradientUnits="userSpaceOnUse">
<stop stop-color="#647B7D"/>
<stop offset="1" stop-color="#5BD0A4"/>
</linearGradient>
</defs>
</svg>