<svg width="200" height="100" viewBox="0 0 200 100" fill="none" xmlns="http://www.w3.org/2000/svg">
<path d="M68.327 44.1909L63.5693 56.5124H65.5215L66.5041 53.8648H72.1667L73.1621 56.5124H75.1143L70.305 44.1909H68.327ZM69.3095 46.2657L71.5461 52.2355H67.0988L69.3095 46.2657ZM75.6961 54.4376C76.6786 55.685 78.4498 56.6651 80.945 56.6651C83.7892 56.6651 85.9612 55.3922 85.9612 52.8974C85.9612 51.1536 84.8881 50.3517 83.6987 49.8934C82.3024 49.3588 80.6735 49.2697 79.5099 48.8242C78.8764 48.5696 78.3205 48.2005 78.3205 47.4113C78.3205 46.3803 79.3289 45.7057 80.9579 45.7057C82.561 45.7057 83.647 46.3421 84.371 47.144L85.6509 46.0239C84.914 45.082 83.4401 44.0637 81.0355 44.0637C78.1783 44.0637 76.5493 45.4893 76.5493 47.4877C76.5493 48.9133 77.3638 49.6898 78.6825 50.2116C80.04 50.7462 81.6302 50.8735 82.8066 51.2936C83.6082 51.5863 84.1641 51.9937 84.1641 52.9229C84.1641 54.2848 82.923 55.0613 81.0484 55.0613C79.2643 55.0613 77.9456 54.3485 77.0665 53.3302L75.6961 54.4376ZM88.0038 43.9236V56.5124H89.7233V50.1225C90.2533 48.8751 91.0937 48.4678 92.115 48.4678C93.382 48.4678 94.2094 49.0915 94.2094 50.7208V56.5124H95.9289V50.5426C95.9289 47.9077 94.5973 46.864 92.658 46.864C91.404 46.864 90.4343 47.3095 89.7233 48.1369V43.3508L88.0038 43.9236ZM102.315 46.864C99.9496 46.864 98.2689 48.5696 98.2689 51.79C98.2689 55.0358 99.9366 56.7542 102.315 56.7542C104.668 56.7542 106.362 55.0358 106.362 51.79C106.362 48.5696 104.655 46.864 102.315 46.864ZM102.315 48.4296C103.738 48.4296 104.733 49.5879 104.733 51.8155C104.733 54.0175 103.738 55.1759 102.315 55.1759C100.867 55.1759 99.9108 54.0175 99.9108 51.8155C99.9108 49.5879 100.893 48.4296 102.315 48.4296ZM114.83 47.424C114.507 47.1313 113.99 46.864 113.149 46.864C111.986 46.864 111.068 47.3349 110.396 48.226V47.0931H108.767V56.5124H110.486V50.1607C111.029 48.8369 111.844 48.4678 112.813 48.4678C113.395 48.4678 113.847 48.5824 114.197 48.926L114.83 47.424ZM115.554 47.0931V48.4805H116.64V54.1957C116.64 55.825 117.61 56.6015 118.786 56.6015C119.484 56.6015 120.221 56.3342 120.57 55.9523L120.855 54.3994C120.415 54.8067 119.988 54.9722 119.484 54.9722C118.76 54.9722 118.359 54.5776 118.359 53.8266V48.4805H120.803V47.0931H118.359V43.9873L116.64 44.5473V47.0931H115.554ZM122.561 43.9236V56.5124H124.281V43.3508L122.561 43.9236ZM127.112 44.1909V56.5124H128.987V44.1909H127.112ZM131.818 47.0931V56.5124H133.537V50.1225C134.067 48.8751 134.921 48.4678 135.929 48.4678C137.196 48.4678 138.036 49.0915 138.036 50.7208V56.5124H139.756V50.5426C139.756 47.9077 138.411 46.864 136.472 46.864C135.166 46.864 134.158 47.3349 133.447 48.2514V47.0931H131.818ZM148.288 47.0931L144.151 51.7645V43.3508L142.432 43.9236V56.5124H144.151V53.8266L145.78 52.0064L148.819 56.5124H150.68L146.841 50.7972L150.163 47.0931H148.288ZM152.632 54.6158C152.076 54.6158 151.663 55.0231 151.663 55.6214C151.663 56.2196 152.076 56.6397 152.632 56.6397C153.214 56.6397 153.628 56.2196 153.628 55.6214C153.628 55.0231 153.214 54.6158 152.632 54.6158ZM155.709 47.0931V56.5124H157.429V50.0716C157.92 48.8751 158.735 48.4678 159.678 48.4678C160.855 48.4678 161.63 49.0915 161.63 50.7208V56.5124H163.35V50.0844C163.854 48.8751 164.617 48.4678 165.574 48.4678C166.776 48.4678 167.552 49.0915 167.552 50.7208V56.5124H169.271V50.5426C169.271 47.9077 167.991 46.864 166.117 46.864C164.746 46.864 163.699 47.4495 163.014 48.5696C162.523 47.3731 161.501 46.864 160.208 46.864C158.967 46.864 158.011 47.3222 157.338 48.2132V47.0931H155.709ZM171.947 43.9236V56.5124H173.667V43.3508L171.947 43.9236Z" fill="white"/>
<path d="M40.345 44.2788L40.3402 44.2826C40.1471 44.4303 39.9614 44.5873 39.7839 44.7529L39.778 44.7587C39.6004 44.9248 39.4312 45.0993 39.271 45.2818L39.2691 45.2842C38.1454 46.565 37.4635 48.2311 37.4635 50.0525C37.4635 51.2132 37.7411 52.3107 38.2322 53.2863C39.242 52.9066 40.0473 52.0778 40.374 51.0594C40.2953 50.7293 40.2549 50.3916 40.2537 50.0525C40.2537 49.1841 40.5132 48.3702 40.9524 47.6746C41.0152 47.5751 41.0816 47.4781 41.1516 47.3836C41.3498 47.1179 41.5759 46.8734 41.8261 46.6543C41.8473 46.6356 41.8673 46.6158 41.8894 46.5977C41.9488 46.5471 42.0116 46.4999 42.0735 46.4523C42.2371 46.3259 42.4097 46.2112 42.59 46.1092C42.6355 46.0834 42.6804 46.0565 42.7267 46.032C42.8437 45.9702 42.9628 45.912 43.0853 45.8603L43.0886 45.8587C43.6556 45.6188 44.2662 45.4951 44.8833 45.4952H52.0683C53.6333 45.4952 54.9021 44.265 54.9021 42.748H44.8833V42.7472C43.2395 42.7456 41.6422 43.2846 40.345 44.2788V44.2788ZM54.9026 54.6104H44.8833C44.6579 54.6104 44.4377 54.5884 44.2207 54.5571C43.6539 55.4325 42.9287 56.1981 42.0811 56.8156C42.9636 57.1715 43.9079 57.3556 44.8616 57.3579H44.8577C45.2277 57.3579 45.5825 57.5026 45.8442 57.7602C46.1058 58.0178 46.2528 58.3672 46.2528 58.7315V60.1051L54.9026 54.6104ZM37.0193 45.4947C37.2447 45.4947 37.4649 45.5166 37.6822 45.548C38.2488 44.6725 38.9741 43.907 39.8218 43.2898C38.9392 42.9337 37.9949 42.7494 37.041 42.7472H37.0449C36.6749 42.7472 36.3201 42.6025 36.0584 42.3449C35.7968 42.0873 35.6498 41.7379 35.6498 41.3736V40L27 45.4944H37.0193V45.4947Z" fill="url(#paint0_linear_1_2)"/>
<path d="M40.9521 56.2436C41.1606 56.1144 41.3625 55.9752 41.5571 55.8266L41.5629 55.8219C41.9512 55.5247 42.3087 55.1905 42.6302 54.8242C42.6313 54.8228 42.6324 54.8211 42.6341 54.8198C42.7945 54.6368 42.9456 54.4462 43.087 54.2486L43.0886 54.2467H43.0884C43.9681 53.0196 44.4398 51.5542 44.4386 50.0523C44.4386 48.8916 44.1612 47.7941 43.6696 46.8186C42.6598 47.1982 41.8545 48.027 41.5278 49.0457C41.604 49.3707 41.6483 49.7067 41.6483 50.0523C41.6483 50.9198 41.3894 51.733 40.9508 52.4281C40.71 52.8083 40.4153 53.1527 40.0754 53.4508C40.0542 53.4692 40.0342 53.489 40.0127 53.5069C39.953 53.5577 39.8905 53.605 39.8282 53.6525C39.6651 53.7787 39.4928 53.8931 39.3129 53.9948C39.2668 54.0212 39.2216 54.0483 39.1747 54.0731C39.059 54.1348 38.9406 54.1914 38.8198 54.2428L38.8131 54.2461C38.2462 54.486 37.6355 54.6097 37.0184 54.6096H29.8341C28.2687 54.6096 27 55.8398 27 57.3568H37.0193V57.3579C38.463 57.3579 39.8106 56.9486 40.9516 56.2431C40.9519 56.2439 40.9521 56.2436 40.9521 56.2436V56.2436Z" fill="url(#paint1_linear_1_2)"/>
<defs>
<linearGradient id="paint0_linear_1_2" x1="25.4189" y1="39.6549" x2="50.5653" y2="51.5647" gradientUnits="userSpaceOnUse">
<stop stop-color="#647B7D"/>
<stop offset="1" stop-color="#5BD0A4"/>
</linearGradient>
<linearGradient id="paint1_linear_1_2" x1="22.4921" y1="45.8346" x2="38.2081" y2="53.278" gradientUnits="userSpaceOnUse">
<stop stop-color="#647B7D"/>
<stop offset="1" stop-color="#5BD0A4"/>
</linearGradient>
</defs>
</svg>
