<?xml version="1.0" encoding="utf-8"?>
<svg viewBox="0 0 1280 720" xmlns="http://www.w3.org/2000/svg" xmlns:bx="https://boxy-svg.com">
  <rect data-v-fde0c5aa="" fill="#01252C" x="-1.581" y="1.206" width="1280" height="720" class="logo-background-square" style="" bx:origin="0.325662 0.475155"/>
  <g data-v-fde0c5aa="" id="dc88b23e-47e3-45ac-aea8-9c743a2a33ed" fill="#FFFFFF" transform="matrix(13.670825, 0, 0, 12.733815, 524.861145, 260.433929)" style="" bx:origin="-0.214188 0.273366">
    <path d="M7.38 14.35L8.43 14.35L8.43 4.58L7.62 4.58L7.62 13.20L7.57 13.20L2.44 4.58L1.39 4.58L1.39 14.35L2.20 14.35L2.20 5.73L2.24 5.73ZM14.25 14.35L14.25 10.35L17.64 4.58L16.69 4.58L13.86 9.51L13.82 9.51L10.99 4.58L10.04 4.58L13.41 10.39L13.41 14.35ZM25.72 5.32L25.72 4.58L18.33 4.58L18.33 5.32L21.60 5.32L21.60 14.35L22.44 14.35L22.44 5.32ZM33.35 7.99C33.35 5.85 32.26 4.41 30.20 4.41C28.29 4.41 27.06 5.68 27.06 7.57C27.06 9.41 28.25 10.56 29.97 10.56C31.15 10.56 31.93 10.00 32.41 9.13L32.47 9.14C31.99 11.44 30.80 12.87 28.64 14.35L29.74 14.35C31.53 13.20 33.35 11.00 33.35 7.99ZM30.21 9.84C28.77 9.84 27.93 8.97 27.93 7.62L27.93 7.38C27.93 6.02 28.78 5.14 30.21 5.14C31.63 5.14 32.48 6.02 32.48 7.39L32.48 7.62C32.48 8.97 31.64 9.84 30.21 9.84ZM41.79 13.61L36.43 13.61L39.44 10.75C40.61 9.66 41.38 8.61 41.38 7.20C41.38 5.53 40.35 4.41 38.50 4.41C36.72 4.41 35.83 5.46 35.46 6.65L36.22 6.93C36.53 5.89 37.17 5.17 38.47 5.17C39.82 5.17 40.49 5.98 40.49 7.13L40.49 7.39C40.49 8.37 39.84 9.34 38.93 10.22L35.52 13.50L35.52 14.35L41.79 14.35Z"/>
  </g>
  <g data-v-fde0c5aa="" id="4b3f8b34-4d32-4bb8-9103-280675599f29" stroke="none" fill="#88DF95" transform="matrix(5.688782, 0, 0, 6.471213, 69.529045, 35.235966)" style="" bx:origin="0.786844 0.348911">
    <path d="M72 63.5H54a.5.5 0 0 1-.447-.276l-18-36A.501.501 0 0 1 36 26.5h18a.5.5 0 0 1 .447.276l18 36A.502.502 0 0 1 72 63.5zm-17.691-1h16.883l-17.5-35H36.809l17.5 35z"/>
    <path d="M54 63.5H18a.5.5 0 0 1-.447-.723l18-36c.17-.339.725-.339.895 0l18 36a.503.503 0 0 1-.021.486.506.506 0 0 1-.427.237zm-35.191-1h34.382L36 28.118 18.809 62.5z"/>
  </g>
</svg>