<svg width="220" height="35" viewBox="0 0 220 35" fill="none" xmlns="http://www.w3.org/2000/svg">
<path d="M17.5001 0C27.165 0 35 7.83502 35 17.5C35 27.165 27.165 35 17.5001 35C7.83502 35 0 27.165 0 17.5C0 7.83502 7.83502 0 17.5001 0Z" fill="#F73B95"/>
<path d="M17.5417 3.41699C25.3657 3.41699 31.7083 9.75962 31.7083 17.5837C31.7083 25.4077 25.3657 31.7503 17.5417 31.7503C9.71767 31.7503 3.375 25.4077 3.375 17.5837C3.375 9.75962 9.71767 3.41699 17.5417 3.41699Z" fill="#BD399C"/>
<path d="M17.5416 7.16699C23.2945 7.16699 27.9582 11.8306 27.9582 17.5837C27.9582 23.3367 23.2945 28.0003 17.5416 28.0003C11.7886 28.0003 7.125 23.3367 7.125 17.5837C7.125 11.8306 11.7886 7.16699 17.5416 7.16699Z" fill="#93388E"/>
<path d="M17.4583 10.333C21.3702 10.333 24.5416 13.5043 24.5416 17.4163C24.5416 21.3282 21.3702 24.4996 17.4583 24.4996C13.5464 24.4996 10.375 21.3282 10.375 17.4163C10.375 13.5043 13.5464 10.333 17.4583 10.333Z" fill="#6030A2"/>
<path d="M54.1094 26H60.8477C63.9531 26 66.2969 25.209 67.8496 23.5977C69.4316 21.9863 70.2227 20.1113 70.2227 17.9141C70.2227 15.7168 69.4316 13.8125 67.8496 12.2012C66.2969 10.5898 63.9531 9.79883 60.8477 9.79883H54.1094V26ZM67.1465 17.9141C67.1465 19.4961 66.6191 20.8438 65.5645 21.957C64.5391 23.041 62.957 23.5977 60.8477 23.5977H57.0977V12.2012H60.8477C62.957 12.2012 64.5391 12.7578 65.5645 13.8418C66.6191 14.9551 67.1465 16.3027 67.1465 17.9141ZM72.625 19.3203C72.625 23.3926 75.2031 26.293 79.6855 26.293C82.6738 26.293 85.0762 24.8574 86.1309 22.1621H82.8203C82.0879 23.3047 81.0625 23.8906 79.6855 23.8906C77.4004 23.8906 75.9355 22.4258 75.6719 20.1406H86.3652V19.3203C86.3652 15.3066 83.6699 12.3477 79.5098 12.3477C75.3203 12.3477 72.625 15.2188 72.625 19.3203ZM83.2891 18.207H75.7012C76.0234 16.1855 77.3125 14.75 79.5098 14.75C81.6484 14.75 82.9668 16.1562 83.2891 18.207ZM93.1914 21.0488V14.8379H96.5605V12.6406H93.1914V9.50586H90.2617V12.6406H88.0938V14.8379H90.2617V21.0488C90.2617 23.0117 90.6719 24.3301 91.5215 25.0332C92.3711 25.7363 93.5723 26.0879 95.125 26.0879C95.623 26.0879 96.0625 26.0586 96.4434 25.9707L97 25.8535V23.5391L96.4434 23.5977C96.0625 23.6562 95.623 23.6855 95.125 23.6855C93.543 23.6855 93.1914 22.8652 93.1914 21.0488ZM105.76 12.4355C103.797 12.4355 102.273 12.8457 101.219 13.6953C100.135 14.5449 99.6074 15.5703 99.6074 16.7715H102.596C102.596 15.3652 104.178 14.8379 105.76 14.8379C107.752 14.8379 108.982 15.541 108.982 17.3867V18.207H105.379C101.834 18.207 99.0801 19.1152 99.0801 22.1035C99.0801 24.8574 101.189 26.293 104.324 26.293C106.346 26.293 107.781 25.7949 108.631 24.7988L109.041 24.3008C109.041 24.8574 109.275 25.707 109.363 26H112.293V25.7656L112.088 25.1211C111.971 24.6816 111.912 24.0078 111.912 23.0703V17.9141C111.912 13.9883 109.686 12.4355 105.76 12.4355ZM108.982 20.1699C108.982 22.8359 107.635 24.2129 105.086 24.2129C103.416 24.2129 102.068 23.6562 102.068 22.25C102.068 20.6387 103.533 20.1699 105.379 20.1406L108.982 20.1699ZM134.764 15.5117H137.781C136.844 11.791 133.914 9.35938 129.812 9.35938C124.715 9.35938 121.199 12.9629 121.199 17.9141C121.199 22.8066 124.686 26.4395 129.812 26.4395C133.826 26.4395 136.814 24.0664 137.781 20.2871H134.764C134.061 22.4258 132.244 23.9785 129.812 23.9785C126.59 23.9785 124.334 21.459 124.334 17.9141C124.334 14.3984 126.531 11.8203 129.812 11.8203C132.186 11.8203 134.031 13.3145 134.764 15.5117ZM143.699 7.68945H140.77V26H143.699V7.68945ZM146.98 19.3203C146.98 21.3418 147.625 23.0117 148.885 24.3301C150.145 25.6484 151.902 26.293 154.1 26.293H154.129C156.326 26.293 158.055 25.6484 159.314 24.3301C160.574 23.0117 161.219 21.3418 161.219 19.3203C161.219 17.2988 160.574 15.6289 159.314 14.3105C158.055 12.9922 156.297 12.3477 154.1 12.3477C151.902 12.3477 150.145 12.9922 148.885 14.3105C147.625 15.6289 146.98 17.2988 146.98 19.3203ZM158.23 19.3203C158.23 21.8691 156.766 23.8906 154.1 23.8906C151.551 23.8906 149.969 21.957 149.969 19.3203C149.969 16.7129 151.58 14.75 154.1 14.75C156.648 14.75 158.23 16.7129 158.23 19.3203ZM169.891 26.2344C171.883 26.2344 173.641 25.4434 174.49 24.0371L174.607 26H177.303V12.6406H174.402V20.375C174.402 21.6055 173.992 22.4844 173.172 23.041C172.352 23.5684 171.502 23.832 170.652 23.832C169.773 23.832 169.012 23.5684 168.338 23.041C167.664 22.4844 167.342 21.6055 167.342 20.375V12.6406H164.412V20.375C164.412 24.1543 166.287 26.2344 169.891 26.2344ZM186.912 12.3477C182.928 12.3477 180.613 15.3359 180.613 19.3203C180.613 23.2461 182.869 26.293 186.912 26.293C188.992 26.293 190.457 25.6484 191.307 24.3301L191.512 24.0078L191.629 26H194.324V7.68945H191.424V14.4863L191.307 14.3105C190.457 12.9922 188.992 12.3477 186.912 12.3477ZM187.439 14.6621C189.988 14.6621 191.424 16.7422 191.424 19.3203C191.424 21.8105 190.047 23.9785 187.439 23.9785C184.891 23.9785 183.543 21.9863 183.543 19.3203C183.543 16.8301 184.861 14.6621 187.439 14.6621Z" fill="white"/>
</svg>
