<svg fill="none" xmlns="http://www.w3.org/2000/svg" viewBox="40 112.83 220 61.85">
<path d="M146.148 166.444H149.623V134.118H146.943V162.639H146.777L129.804 134.118H126.33V166.444H129.01V137.923H129.142L146.148 166.444ZM168.879 166.444V153.209L180.095 134.118H176.952L167.589 150.43H167.456L158.093 134.118H154.95L166.1 153.342V166.444H168.879ZM206.83 136.567V134.118H182.378V136.567H193.198V166.444H195.977V136.567H206.83ZM232.075 145.401C232.075 138.32 228.468 133.556 221.652 133.556C215.333 133.556 211.263 137.758 211.263 144.011C211.263 150.099 215.201 153.904 220.891 153.904C224.796 153.904 227.376 152.051 228.965 149.173L229.163 149.206C227.575 156.816 223.638 161.547 216.491 166.444H220.13C226.053 162.639 232.075 155.36 232.075 145.401ZM221.686 151.522C216.921 151.522 214.142 148.643 214.142 144.177V143.383C214.142 138.883 216.954 135.971 221.686 135.971C226.384 135.971 229.196 138.883 229.196 143.416V144.177C229.196 148.643 226.417 151.522 221.686 151.522ZM260 163.996H242.265L252.225 154.533C256.096 150.926 258.643 147.452 258.643 142.787C258.643 137.262 255.236 133.556 249.114 133.556C243.225 133.556 240.28 137.03 239.056 140.967L241.571 141.894C242.596 138.453 244.714 136.07 249.015 136.07C253.482 136.07 255.699 138.75 255.699 142.555V143.416C255.699 146.658 253.548 149.868 250.537 152.779L239.255 163.632V166.444H260V163.996Z" fill="white"/>
<path d="M112.665 174.666H88.665C88.5413 174.666 88.42 174.632 88.3148 174.567C88.2095 174.502 88.1244 174.409 88.069 174.298L64.0695 126.299C64.0189 126.197 63.9952 126.085 64.0004 125.971C64.0056 125.858 64.0396 125.748 64.0993 125.651C64.1589 125.554 64.2422 125.474 64.3413 125.419C64.4404 125.364 64.5519 125.334 64.6655 125.334H88.665C88.7887 125.334 88.91 125.368 89.0152 125.433C89.1205 125.498 89.2056 125.591 89.261 125.702L113.26 173.701C113.311 173.803 113.334 173.915 113.329 174.029C113.323 174.142 113.289 174.252 113.23 174.348C113.17 174.445 113.087 174.525 112.988 174.58C112.889 174.636 112.778 174.665 112.665 174.666V174.666ZM89.077 173.333H111.587L88.2543 126.667H65.7441L89.077 173.333Z" fill="#88DF95"/>
<path d="M88.665 174.666H40.666C40.5525 174.666 40.4409 174.637 40.3418 174.582C40.2427 174.526 40.1593 174.447 40.0996 174.35C40.0399 174.254 40.0059 174.143 40.0007 174.03C39.9955 173.917 40.0194 173.804 40.07 173.702L64.0695 125.703C64.2962 125.251 65.0361 125.251 65.2628 125.703L89.2623 173.702C89.3128 173.804 89.3368 173.916 89.3319 174.03C89.327 174.143 89.2934 174.253 89.2343 174.35C89.1738 174.447 89.0899 174.526 88.9903 174.581C88.8908 174.637 88.7789 174.666 88.665 174.666V174.666ZM41.7446 173.333H87.5864L64.6655 127.491L41.7446 173.333V173.333Z" fill="#88DF95"/>
<path d="M47.007 114.532H46.952L46.303 115.819L44.466 119.163L42.629 115.819L41.98 114.532H41.925V121H41.023V113.322H42.255L44.455 117.458H44.51L46.721 113.322H47.909V121H47.007V114.532ZM53.9868 121C53.6568 121 53.4184 120.912 53.2718 120.736C53.1324 120.56 53.0444 120.34 53.0078 120.076H52.9528C52.8281 120.428 52.6228 120.692 52.3368 120.868C52.0508 121.044 51.7098 121.132 51.3138 121.132C50.7124 121.132 50.2431 120.978 49.9058 120.67C49.5758 120.362 49.4108 119.944 49.4108 119.416C49.4108 118.881 49.6051 118.47 49.9938 118.184C50.3898 117.898 51.0021 117.755 51.8308 117.755H52.9528V117.194C52.9528 116.791 52.8428 116.483 52.6228 116.27C52.4028 116.057 52.0654 115.951 51.6108 115.951C51.2661 115.951 50.9764 116.028 50.7418 116.182C50.5144 116.336 50.3238 116.541 50.1698 116.798L49.6418 116.303C49.7958 115.995 50.0414 115.735 50.3788 115.522C50.7161 115.302 51.1414 115.192 51.6548 115.192C52.3441 115.192 52.8794 115.361 53.2608 115.698C53.6421 116.035 53.8328 116.505 53.8328 117.106V120.23H54.4818V121H53.9868ZM51.4568 120.384C51.6768 120.384 51.8784 120.358 52.0618 120.307C52.2451 120.256 52.4028 120.182 52.5348 120.087C52.6668 119.992 52.7694 119.882 52.8428 119.757C52.9161 119.632 52.9528 119.497 52.9528 119.35V118.415H51.7868C51.2808 118.415 50.9104 118.488 50.6758 118.635C50.4484 118.782 50.3348 118.994 50.3348 119.273V119.504C50.3348 119.783 50.4338 119.999 50.6318 120.153C50.8371 120.307 51.1121 120.384 51.4568 120.384ZM59.3677 120.076H59.3237C58.9791 120.78 58.4254 121.132 57.6627 121.132C57.3107 121.132 56.9917 121.062 56.7057 120.923C56.4197 120.784 56.1741 120.586 55.9687 120.329C55.7707 120.072 55.6167 119.761 55.5067 119.394C55.4041 119.027 55.3527 118.617 55.3527 118.162C55.3527 117.707 55.4041 117.297 55.5067 116.93C55.6167 116.563 55.7707 116.252 55.9687 115.995C56.1741 115.738 56.4197 115.54 56.7057 115.401C56.9917 115.262 57.3107 115.192 57.6627 115.192C58.0587 115.192 58.3961 115.28 58.6747 115.456C58.9607 115.625 59.1771 115.889 59.3237 116.248H59.3677V112.86H60.2477V121H59.3677V120.076ZM57.9047 120.34C58.1027 120.34 58.2897 120.314 58.4657 120.263C58.6491 120.212 58.8067 120.138 58.9387 120.043C59.0707 119.94 59.1734 119.819 59.2467 119.68C59.3274 119.533 59.3677 119.368 59.3677 119.185V117.073C59.3677 116.919 59.3274 116.776 59.2467 116.644C59.1734 116.505 59.0707 116.387 58.9387 116.292C58.8067 116.197 58.6491 116.123 58.4657 116.072C58.2897 116.013 58.1027 115.984 57.9047 115.984C57.4061 115.984 57.0137 116.142 56.7277 116.457C56.4417 116.765 56.2987 117.172 56.2987 117.678V118.646C56.2987 119.152 56.4417 119.563 56.7277 119.878C57.0137 120.186 57.4061 120.34 57.9047 120.34ZM64.2526 121.132C63.8639 121.132 63.5119 121.062 63.1966 120.923C62.8886 120.784 62.6209 120.586 62.3936 120.329C62.1736 120.065 62.0013 119.753 61.8766 119.394C61.7593 119.027 61.7006 118.617 61.7006 118.162C61.7006 117.715 61.7593 117.308 61.8766 116.941C62.0013 116.574 62.1736 116.263 62.3936 116.006C62.6209 115.742 62.8886 115.54 63.1966 115.401C63.5119 115.262 63.8639 115.192 64.2526 115.192C64.6339 115.192 64.9749 115.262 65.2756 115.401C65.5763 115.54 65.8329 115.735 66.0456 115.984C66.2583 116.226 66.4196 116.516 66.5296 116.853C66.6469 117.19 66.7056 117.561 66.7056 117.964V118.382H62.6246V118.646C62.6246 118.888 62.6613 119.115 62.7346 119.328C62.8153 119.533 62.9253 119.713 63.0646 119.867C63.2113 120.021 63.3873 120.142 63.5926 120.23C63.8053 120.318 64.0436 120.362 64.3076 120.362C64.6669 120.362 64.9786 120.278 65.2426 120.109C65.5139 119.94 65.7229 119.698 65.8696 119.383L66.4966 119.834C66.3133 120.223 66.0273 120.538 65.6386 120.78C65.2499 121.015 64.7879 121.132 64.2526 121.132ZM64.2526 115.929C64.0106 115.929 63.7906 115.973 63.5926 116.061C63.3946 116.142 63.2223 116.259 63.0756 116.413C62.9363 116.567 62.8263 116.75 62.7456 116.963C62.6649 117.168 62.6246 117.396 62.6246 117.645V117.722H65.7596V117.601C65.7596 117.095 65.6203 116.692 65.3416 116.391C65.0703 116.083 64.7073 115.929 64.2526 115.929ZM70.7553 112.86H71.6353V116.248H71.6793C71.826 115.889 72.0386 115.625 72.3173 115.456C72.6033 115.28 72.9443 115.192 73.3403 115.192C73.6923 115.192 74.0113 115.262 74.2973 115.401C74.5833 115.54 74.8253 115.738 75.0233 115.995C75.2286 116.252 75.3826 116.563 75.4853 116.93C75.5953 117.297 75.6503 117.707 75.6503 118.162C75.6503 118.617 75.5953 119.027 75.4853 119.394C75.3826 119.761 75.2286 120.072 75.0233 120.329C74.8253 120.586 74.5833 120.784 74.2973 120.923C74.0113 121.062 73.6923 121.132 73.3403 121.132C72.5703 121.132 72.0166 120.78 71.6793 120.076H71.6353V121H70.7553V112.86ZM73.0983 120.34C73.597 120.34 73.9893 120.186 74.2753 119.878C74.5613 119.563 74.7043 119.152 74.7043 118.646V117.678C74.7043 117.172 74.5613 116.765 74.2753 116.457C73.9893 116.142 73.597 115.984 73.0983 115.984C72.9003 115.984 72.7096 116.013 72.5263 116.072C72.3503 116.123 72.1963 116.197 72.0643 116.292C71.9323 116.387 71.826 116.505 71.7453 116.644C71.672 116.776 71.6353 116.919 71.6353 117.073V119.185C71.6353 119.368 71.672 119.533 71.7453 119.68C71.826 119.819 71.9323 119.94 72.0643 120.043C72.1963 120.138 72.3503 120.212 72.5263 120.263C72.7096 120.314 72.9003 120.34 73.0983 120.34ZM80.5805 115.324H81.4495L78.9085 122.32C78.8425 122.489 78.7765 122.628 78.7105 122.738C78.6445 122.855 78.5638 122.947 78.4685 123.013C78.3731 123.079 78.2521 123.127 78.1055 123.156C77.9661 123.185 77.7938 123.2 77.5885 123.2H77.1375V122.43H78.0285L78.4575 121.22L76.3345 115.324H77.2145L78.5785 119.185L78.8425 120.109H78.8975L79.2055 119.185L80.5805 115.324Z" fill="white" fill-opacity="0.4"/>
</svg>