<svg width="126" height="25" viewBox="0 0 126 25" fill="none" xmlns="http://www.w3.org/2000/svg">
<path d="M17.9 18C17.9 18.7 17.6 19.3 16.9 19.7C16.4 20.1 15.6 20.2 14.6 20.2C13.3 20.2 12.4 19.9 11.6 19.4C11.2716 19.1318 11.0038 18.7971 10.8142 18.4179C10.6246 18.0387 10.5175 17.6236 10.5 17.2L4.5 17C4.5 18.5 4.9 19.9 5.8 21C6.7 22.3 7.8 23.2 9.4 24L12 24.7H12.1H0V1.4H12C11.1 1.6 10.3 1.8 9.5 2.2C8.21681 2.75966 7.11048 3.65856 6.3 4.8C5.48405 5.86361 5.02865 7.15977 5 8.5C5 10 5.3 11.2 6 12.2C6.6 13.1 7.4 13.8 8.4 14.2C9.4 14.7 10.7 15.1 12.4 15.4C14.0875 15.8276 15.7558 16.3281 17.4 16.9C17.6 17.2 17.8 17.5 17.8 18H17.9Z" fill="#1FB07E"/>
<path d="M41.6 15.5V24.7H35.8V15.7C35.8773 14.7281 35.6687 13.7549 35.2 12.9C34.7 12.2 34 11.9 33 11.9C32 11.9 31.2 12.2 30.7 12.9C30.1 13.6 29.9 14.5 29.9 15.8V24.8H16.8C17.8 24.6 18.6 24.3 19.4 23.9C20.773 23.3032 21.951 22.3331 22.8 21.1C23.6452 19.9375 24.1003 18.5372 24.1 17.1C24.1371 15.8579 23.7877 14.635 23.1 13.6C22.4669 12.7157 21.6017 12.0235 20.6 11.6C19.3084 11.0957 17.9679 10.727 16.6 10.5L13.3 9.7L11.7 9.1C11.4 8.8 11.2 8.4 11.2 8C11.2 7.3 11.5 6.8 12.1 6.4C12.6 6 13.3 5.9 14.1 5.9C15.2 5.9 16 6.1 16.6 6.6C17.2 7.1 17.5 7.8 17.6 8.6H23.6C23.6 7.2 23.1 5.9 22.3 4.8C21.4645 3.61804 20.324 2.68489 19 2.1L16.5 1.3H29.9V9.3C30.5 8.6 31.1 8.1 31.9 7.8C32.7893 7.44347 33.7423 7.27329 34.7 7.3C36.7 7.3 38.3 7.9 39.7 9.2C40.9 10.4 41.7 12.5 41.7 15.5H41.6ZM61.2 11.5C60.4484 10.1845 59.3387 9.10947 58 8.4C56.6 7.6 54.9 7.3 53 7.3C51.1 7.3 49.4 7.6 48 8.3C46.6369 9.02206 45.5221 10.1369 44.8 11.5C44.0082 12.9035 43.5947 14.4886 43.6 16.1C43.6 17.9 44 19.4 44.8 20.8C45.5663 22.0786 46.6747 23.1177 48 23.8C49.4 24.6 51.1 24.9 53 24.9C54.9 24.9 56.6 24.6 58 23.9C59.3488 23.2046 60.4621 22.1261 61.2 20.8C62.0226 19.3727 62.4377 17.747 62.4 16.1C62.4 14.3 62 12.8 61.2 11.5ZM55.6 19.2C55.2902 19.5826 54.8909 19.8831 54.4375 20.0749C53.984 20.2668 53.4904 20.3441 53 20.3C51.9 20.3 51 19.9 50.4 19.2C49.8 18.4 49.4 17.4 49.4 16.2C49.4 14.8 49.7 13.8 50.4 13C50.7202 12.6355 51.1241 12.3541 51.5769 12.1799C52.0297 12.0058 52.5181 11.944 53 12C54 12 55 12.4 55.6 13.1C56.2 13.9 56.5 14.9 56.5 16.2C56.5 17.5 56.2 18.5 55.5 19.2H55.6ZM72.4 8.1C71.5547 8.56028 70.8603 9.25474 70.4 10.1V7.4H64.7V24.6H70.5V16.3C70.5 13.8 71.7 12.5 74 12.5H76.2V7.5H75.3C74.265 7.43741 73.2313 7.64413 72.3 8.1H72.4ZM83.8 2.6H78V19.6C78 21.3 78.5 22.6 79.3 23.4C80.3 24.4 81.5 24.7 83.2 24.7H87.5V20H85.4C84.8 20 84.4 19.8 84.2 19.6C83.9 19.4 83.8 19 83.8 18.4V12.3H87.5V7.5H83.8V2.6ZM92.8 18.4C91.9 18.4 91.1 18.7 90.5 19.4C89.8 20 89.5 20.8 89.5 21.7C89.5 22.7 89.8 23.4 90.5 24.1C91.1 24.7 91.9 25 92.8 25C93.8 25 94.6 24.7 95.2 24C95.8 23.4 96.2 22.6 96.2 21.7C96.2 20.7 95.8 20 95.2 19.3C94.6 18.7 93.8 18.4 92.8 18.4ZM101.8 0C100.8 0 100.1 0.3 99.5 1C99.1899 1.27732 98.9408 1.61612 98.7687 1.99486C98.5965 2.37359 98.505 2.784 98.5 3.2C98.505 3.616 98.5965 4.02641 98.7687 4.40514C98.9408 4.78388 99.1899 5.12268 99.5 5.4C100.1 6 100.9 6.4 101.8 6.4C102.8 6.4 103.5 6 104.1 5.4C104.41 5.12268 104.659 4.78388 104.831 4.40514C105.003 4.02641 105.095 3.616 105.1 3.2C105.109 2.76718 105.024 2.3375 104.852 1.94049C104.679 1.54347 104.423 1.18852 104.1 0.9C103.5 0.3 102.7 0 101.8 0V0ZM104.6 7.5H99V24.7H104.7V7.5H104.6ZM124.6 11.5C123.821 10.1705 122.676 9.094 121.3 8.4C119.9 7.6 118.3 7.3 116.3 7.3C114.5 7.3 112.8 7.6 111.4 8.3C110 9.00579 108.849 10.1222 108.1 11.5C107.347 12.8783 106.968 14.4297 107 16C107 17.8 107.4 19.3 108.1 20.7C108.893 21.9926 110.038 23.033 111.4 23.7C112.8 24.5 114.4 24.8 116.4 24.8C118.3 24.8 119.9 24.5 121.4 23.8C122.749 23.1046 123.862 22.0261 124.6 20.7C125.409 19.2671 125.823 17.6452 125.8 16C125.8 14.2 125.4 12.7 124.6 11.4V11.5ZM118.9 19.2C118.59 19.5826 118.191 19.8831 117.737 20.0749C117.284 20.2668 116.79 20.3441 116.3 20.3C115.3 20.3 114.3 19.9 113.8 19.2C113.1 18.4 112.8 17.4 112.8 16.2C112.8 14.8 113.1 13.8 113.8 13C114.1 12.6319 114.483 12.3402 114.918 12.149C115.352 11.9578 115.826 11.8724 116.3 11.9C117.5 11.9 118.3 12.3 118.9 13C119.5 13.8 119.9 14.8 119.9 16.1C119.9 17.4 119.6 18.4 118.9 19.1V19.2Z" fill="white"/>
</svg>
